<svg width="491" height="128" viewBox="0 0 491 128" fill="none" xmlns="http://www.w3.org/2000/svg">
<rect width="491" height="128" fill="#1E1E1E"/>
<path d="M50.5 63.5H35L61 16.5L99.5 84.5H84.5L61.5 44.5L50.5 63.5Z" fill="white"/>
<path d="M74.5 84.5L62.5 63L57 72H31L23.5 84.5H74.5Z" fill="#2B7577"/>
<path d="M123.655 70H116.837L124.518 46.7273H133.155L140.837 70H134.018L128.928 53.1364H128.746L123.655 70ZM122.382 60.8182H135.2V65.5455H122.382V60.8182ZM149.442 60.1818V70H143.169V52.5455H149.124V55.8636H149.305C149.684 54.7576 150.351 53.8902 151.305 53.2614C152.268 52.6326 153.389 52.3182 154.669 52.3182C155.904 52.3182 156.976 52.6023 157.885 53.1705C158.802 53.7311 159.51 54.5038 160.01 55.4886C160.518 56.4735 160.768 57.5985 160.76 58.8636V70H154.487V60.1818C154.495 59.3182 154.275 58.6402 153.828 58.1477C153.389 57.6553 152.775 57.4091 151.987 57.4091C151.472 57.4091 151.021 57.5227 150.635 57.75C150.256 57.9697 149.964 58.2879 149.76 58.7045C149.555 59.1136 149.449 59.6061 149.442 60.1818ZM174.266 52.5455V57.0909H162.766V52.5455H174.266ZM164.993 48.3636H171.266V64.3864C171.266 64.6288 171.307 64.8333 171.391 65C171.474 65.1591 171.603 65.2803 171.777 65.3636C171.951 65.4394 172.175 65.4773 172.447 65.4773C172.637 65.4773 172.857 65.4545 173.107 65.4091C173.364 65.3636 173.554 65.3258 173.675 65.2955L174.584 69.7045C174.304 69.7879 173.902 69.8902 173.379 70.0114C172.864 70.1326 172.25 70.2121 171.538 70.25C170.099 70.3258 168.891 70.178 167.913 69.8068C166.936 69.428 166.201 68.8333 165.709 68.0227C165.216 67.2121 164.978 66.197 164.993 64.9773V48.3636ZM185.047 70.3182C183.153 70.3182 181.532 69.9432 180.183 69.1932C178.835 68.4356 177.801 67.3826 177.081 66.0341C176.361 64.678 176.001 63.1061 176.001 61.3182C176.001 59.5303 176.361 57.9621 177.081 56.6136C177.801 55.2576 178.835 54.2045 180.183 53.4545C181.532 52.697 183.153 52.3182 185.047 52.3182C186.941 52.3182 188.562 52.697 189.911 53.4545C191.259 54.2045 192.293 55.2576 193.013 56.6136C193.732 57.9621 194.092 59.5303 194.092 61.3182C194.092 63.1061 193.732 64.678 193.013 66.0341C192.293 67.3826 191.259 68.4356 189.911 69.1932C188.562 69.9432 186.941 70.3182 185.047 70.3182ZM185.092 65.6818C185.623 65.6818 186.081 65.5038 186.467 65.1477C186.854 64.7917 187.153 64.2841 187.365 63.625C187.577 62.9659 187.683 62.1818 187.683 61.2727C187.683 60.3561 187.577 59.572 187.365 58.9205C187.153 58.2614 186.854 57.7538 186.467 57.3977C186.081 57.0417 185.623 56.8636 185.092 56.8636C184.532 56.8636 184.051 57.0417 183.649 57.3977C183.248 57.7538 182.941 58.2614 182.729 58.9205C182.517 59.572 182.411 60.3561 182.411 61.2727C182.411 62.1818 182.517 62.9659 182.729 63.625C182.941 64.2841 183.248 64.7917 183.649 65.1477C184.051 65.5038 184.532 65.6818 185.092 65.6818ZM182.956 50.3636L185.138 45.2727H190.501L187.092 50.3636H182.956ZM202.911 60.1818V70H196.638V52.5455H202.592V55.8636H202.774C203.153 54.7576 203.82 53.8902 204.774 53.2614C205.736 52.6326 206.857 52.3182 208.138 52.3182C209.373 52.3182 210.445 52.6023 211.354 53.1705C212.27 53.7311 212.979 54.5038 213.479 55.4886C213.986 56.4735 214.236 57.5985 214.229 58.8636V70H207.956V60.1818C207.964 59.3182 207.744 58.6402 207.297 58.1477C206.857 57.6553 206.244 57.4091 205.456 57.4091C204.941 57.4091 204.49 57.5227 204.104 57.75C203.725 57.9697 203.433 58.2879 203.229 58.7045C203.024 59.1136 202.918 59.6061 202.911 60.1818ZM217.325 70V52.5455H223.598V70H217.325ZM220.462 50.7273C219.613 50.7273 218.886 50.447 218.28 49.8864C217.674 49.3258 217.371 48.6515 217.371 47.8636C217.371 47.0758 217.674 46.4015 218.28 45.8409C218.886 45.2803 219.613 45 220.462 45C221.318 45 222.045 45.2803 222.643 45.8409C223.25 46.4015 223.553 47.0758 223.553 47.8636C223.553 48.6515 223.25 49.3258 222.643 49.8864C222.045 50.447 221.318 50.7273 220.462 50.7273ZM235.203 70.3182C233.309 70.3182 231.688 69.9432 230.339 69.1932C228.991 68.4356 227.957 67.3826 227.237 66.0341C226.518 64.678 226.158 63.1061 226.158 61.3182C226.158 59.5303 226.518 57.9621 227.237 56.6136C227.957 55.2576 228.991 54.2045 230.339 53.4545C231.688 52.697 233.309 52.3182 235.203 52.3182C237.097 52.3182 238.718 52.697 240.067 53.4545C241.415 54.2045 242.449 55.2576 243.169 56.6136C243.889 57.9621 244.249 59.5303 244.249 61.3182C244.249 63.1061 243.889 64.678 243.169 66.0341C242.449 67.3826 241.415 68.4356 240.067 69.1932C238.718 69.9432 237.097 70.3182 235.203 70.3182ZM235.249 65.6818C235.779 65.6818 236.237 65.5038 236.624 65.1477C237.01 64.7917 237.309 64.2841 237.521 63.625C237.733 62.9659 237.839 62.1818 237.839 61.2727C237.839 60.3561 237.733 59.572 237.521 58.9205C237.309 58.2614 237.01 57.7538 236.624 57.3977C236.237 57.0417 235.779 56.8636 235.249 56.8636C234.688 56.8636 234.207 57.0417 233.805 57.3977C233.404 57.7538 233.097 58.2614 232.885 58.9205C232.673 59.572 232.567 60.3561 232.567 61.2727C232.567 62.1818 232.673 62.9659 232.885 63.625C233.097 64.2841 233.404 64.7917 233.805 65.1477C234.207 65.5038 234.688 65.6818 235.249 65.6818ZM259.442 46.7273L264.214 63.1364H264.396L269.169 46.7273H276.305L268.624 70H259.987L252.305 46.7273H259.442ZM281.376 70.2727C280.263 70.2727 279.278 70.0909 278.422 69.7273C277.573 69.3561 276.907 68.7955 276.422 68.0455C275.937 67.2955 275.695 66.3409 275.695 65.1818C275.695 64.2273 275.857 63.4129 276.183 62.7386C276.509 62.0568 276.964 61.5 277.547 61.0682C278.13 60.6364 278.808 60.3068 279.581 60.0795C280.361 59.8523 281.202 59.7045 282.104 59.6364C283.081 59.5606 283.865 59.4697 284.456 59.3636C285.054 59.25 285.486 59.0947 285.751 58.8977C286.017 58.6932 286.149 58.4242 286.149 58.0909V58.0455C286.149 57.5909 285.975 57.2424 285.626 57C285.278 56.7576 284.831 56.6364 284.286 56.6364C283.687 56.6364 283.198 56.7689 282.82 57.0341C282.448 57.2917 282.225 57.6894 282.149 58.2273H276.376C276.452 57.1667 276.789 56.1894 277.388 55.2955C277.994 54.3939 278.876 53.6742 280.036 53.1364C281.195 52.5909 282.642 52.3182 284.376 52.3182C285.626 52.3182 286.748 52.4659 287.74 52.7614C288.732 53.0492 289.577 53.4545 290.274 53.9773C290.971 54.4924 291.501 55.0985 291.865 55.7955C292.236 56.4848 292.422 57.2348 292.422 58.0455V70H286.558V67.5455H286.422C286.073 68.197 285.649 68.7235 285.149 69.125C284.657 69.5265 284.092 69.8182 283.456 70C282.827 70.1818 282.134 70.2727 281.376 70.2727ZM283.422 66.3182C283.899 66.3182 284.346 66.2197 284.763 66.0227C285.187 65.8258 285.532 65.5417 285.797 65.1705C286.062 64.7992 286.195 64.3485 286.195 63.8182V62.3636C286.028 62.4318 285.85 62.4962 285.661 62.5568C285.479 62.6174 285.282 62.6742 285.07 62.7273C284.865 62.7803 284.645 62.8295 284.411 62.875C284.183 62.9205 283.945 62.9621 283.695 63C283.21 63.0758 282.812 63.2008 282.501 63.375C282.198 63.5417 281.971 63.75 281.82 64C281.676 64.2424 281.604 64.5152 281.604 64.8182C281.604 65.303 281.774 65.6742 282.115 65.9318C282.456 66.1894 282.892 66.3182 283.422 66.3182ZM311.374 58.2273H305.601C305.571 57.8712 305.446 57.5644 305.226 57.3068C305.006 57.0492 304.722 56.8523 304.374 56.7159C304.033 56.572 303.654 56.5 303.237 56.5C302.699 56.5 302.237 56.5985 301.851 56.7955C301.464 56.9924 301.275 57.2727 301.283 57.6364C301.275 57.8939 301.385 58.1326 301.612 58.3523C301.847 58.572 302.298 58.7424 302.964 58.8636L306.51 59.5C308.298 59.8258 309.627 60.375 310.499 61.1477C311.377 61.9129 311.821 62.9394 311.828 64.2273C311.821 65.4697 311.449 66.5492 310.714 67.4659C309.987 68.375 308.991 69.0795 307.726 69.5795C306.468 70.072 305.033 70.3182 303.419 70.3182C300.752 70.3182 298.665 69.7727 297.158 68.6818C295.658 67.5909 294.821 66.1515 294.646 64.3636H300.874C300.957 64.9167 301.23 65.3447 301.692 65.6477C302.161 65.9432 302.752 66.0909 303.464 66.0909C304.04 66.0909 304.514 65.9924 304.885 65.7955C305.264 65.5985 305.457 65.3182 305.464 64.9545C305.457 64.6212 305.29 64.3561 304.964 64.1591C304.646 63.9621 304.146 63.803 303.464 63.6818L300.374 63.1364C298.593 62.8258 297.26 62.2348 296.374 61.3636C295.487 60.4924 295.048 59.3712 295.055 58C295.048 56.7879 295.366 55.7614 296.01 54.9205C296.661 54.072 297.589 53.428 298.794 52.9886C300.006 52.5417 301.442 52.3182 303.101 52.3182C305.624 52.3182 307.612 52.8409 309.067 53.8864C310.529 54.9318 311.298 56.3788 311.374 58.2273ZM322.641 70.3182C320.747 70.3182 319.125 69.9432 317.777 69.1932C316.429 68.4356 315.394 67.3826 314.675 66.0341C313.955 64.678 313.595 63.1061 313.595 61.3182C313.595 59.5303 313.955 57.9621 314.675 56.6136C315.394 55.2576 316.429 54.2045 317.777 53.4545C319.125 52.697 320.747 52.3182 322.641 52.3182C324.353 52.3182 325.834 52.6288 327.084 53.25C328.341 53.8636 329.315 54.7348 330.004 55.8636C330.694 56.9848 331.042 58.303 331.05 59.8182H325.232C325.148 58.9015 324.883 58.2045 324.436 57.7273C323.997 57.2424 323.429 57 322.732 57C322.186 57 321.709 57.1591 321.3 57.4773C320.891 57.7879 320.572 58.2614 320.345 58.8977C320.118 59.5265 320.004 60.3182 320.004 61.2727C320.004 62.2273 320.118 63.0227 320.345 63.6591C320.572 64.2879 320.891 64.7614 321.3 65.0795C321.709 65.3902 322.186 65.5455 322.732 65.5455C323.194 65.5455 323.603 65.4394 323.959 65.2273C324.315 65.0076 324.603 64.6894 324.822 64.2727C325.05 63.8485 325.186 63.3333 325.232 62.7273H331.05C331.027 64.2652 330.675 65.6061 329.993 66.75C329.311 67.8864 328.345 68.7652 327.095 69.3864C325.853 70.0076 324.368 70.3182 322.641 70.3182ZM342.047 70.3182C340.153 70.3182 338.532 69.9432 337.183 69.1932C335.835 68.4356 334.801 67.3826 334.081 66.0341C333.361 64.678 333.001 63.1061 333.001 61.3182C333.001 59.5303 333.361 57.9621 334.081 56.6136C334.801 55.2576 335.835 54.2045 337.183 53.4545C338.532 52.697 340.153 52.3182 342.047 52.3182C343.941 52.3182 345.562 52.697 346.911 53.4545C348.259 54.2045 349.293 55.2576 350.013 56.6136C350.732 57.9621 351.092 59.5303 351.092 61.3182C351.092 63.1061 350.732 64.678 350.013 66.0341C349.293 67.3826 348.259 68.4356 346.911 69.1932C345.562 69.9432 343.941 70.3182 342.047 70.3182ZM342.092 65.6818C342.623 65.6818 343.081 65.5038 343.467 65.1477C343.854 64.7917 344.153 64.2841 344.365 63.625C344.577 62.9659 344.683 62.1818 344.683 61.2727C344.683 60.3561 344.577 59.572 344.365 58.9205C344.153 58.2614 343.854 57.7538 343.467 57.3977C343.081 57.0417 342.623 56.8636 342.092 56.8636C341.532 56.8636 341.051 57.0417 340.649 57.3977C340.248 57.7538 339.941 58.2614 339.729 58.9205C339.517 59.572 339.411 60.3561 339.411 61.2727C339.411 62.1818 339.517 62.9659 339.729 63.625C339.941 64.2841 340.248 64.7917 340.649 65.1477C341.051 65.5038 341.532 65.6818 342.092 65.6818ZM359.911 60.1818V70H353.638V52.5455H359.592V55.8636H359.774C360.153 54.7576 360.82 53.8902 361.774 53.2614C362.736 52.6326 363.857 52.3182 365.138 52.3182C366.373 52.3182 367.445 52.6023 368.354 53.1705C369.27 53.7311 369.979 54.5038 370.479 55.4886C370.986 56.4735 371.236 57.5985 371.229 58.8636V70H364.956V60.1818C364.964 59.3182 364.744 58.6402 364.297 58.1477C363.857 57.6553 363.244 57.4091 362.456 57.4091C361.941 57.4091 361.49 57.5227 361.104 57.75C360.725 57.9697 360.433 58.2879 360.229 58.7045C360.024 59.1136 359.918 59.6061 359.911 60.1818ZM382.734 70.3182C380.84 70.3182 379.219 69.9432 377.871 69.1932C376.522 68.4356 375.488 67.3826 374.768 66.0341C374.049 64.678 373.689 63.1061 373.689 61.3182C373.689 59.5303 374.049 57.9621 374.768 56.6136C375.488 55.2576 376.522 54.2045 377.871 53.4545C379.219 52.697 380.84 52.3182 382.734 52.3182C384.446 52.3182 385.928 52.6288 387.178 53.25C388.435 53.8636 389.409 54.7348 390.098 55.8636C390.787 56.9848 391.136 58.303 391.143 59.8182H385.325C385.242 58.9015 384.977 58.2045 384.53 57.7273C384.09 57.2424 383.522 57 382.825 57C382.28 57 381.803 57.1591 381.393 57.4773C380.984 57.7879 380.666 58.2614 380.439 58.8977C380.212 59.5265 380.098 60.3182 380.098 61.2727C380.098 62.2273 380.212 63.0227 380.439 63.6591C380.666 64.2879 380.984 64.7614 381.393 65.0795C381.803 65.3902 382.28 65.5455 382.825 65.5455C383.287 65.5455 383.696 65.4394 384.053 65.2273C384.409 65.0076 384.696 64.6894 384.916 64.2727C385.143 63.8485 385.28 63.3333 385.325 62.7273H391.143C391.121 64.2652 390.768 65.6061 390.087 66.75C389.405 67.8864 388.439 68.7652 387.189 69.3864C385.946 70.0076 384.462 70.3182 382.734 70.3182ZM402.095 70.3182C400.232 70.3182 398.625 69.9621 397.277 69.25C395.936 68.5303 394.902 67.5 394.175 66.1591C393.455 64.8106 393.095 63.197 393.095 61.3182C393.095 59.5152 393.459 57.9394 394.186 56.5909C394.913 55.2424 395.94 54.1932 397.266 53.4432C398.591 52.6932 400.156 52.3182 401.959 52.3182C403.277 52.3182 404.47 52.5227 405.538 52.9318C406.607 53.3409 407.519 53.9356 408.277 54.7159C409.035 55.4886 409.618 56.428 410.027 57.5341C410.436 58.6402 410.641 59.8864 410.641 61.2727V62.7273H395.05V59.2727H404.868C404.86 58.7727 404.732 58.3333 404.482 57.9545C404.239 57.5682 403.91 57.2689 403.493 57.0568C403.084 56.8371 402.618 56.7273 402.095 56.7273C401.588 56.7273 401.122 56.8371 400.697 57.0568C400.273 57.2689 399.932 57.5644 399.675 57.9432C399.425 58.322 399.292 58.7652 399.277 59.2727V63C399.277 63.5606 399.394 64.0606 399.629 64.5C399.864 64.9394 400.201 65.2841 400.641 65.5341C401.08 65.7841 401.61 65.9091 402.232 65.9091C402.663 65.9091 403.057 65.8485 403.413 65.7273C403.777 65.6061 404.088 65.4318 404.345 65.2045C404.603 64.9697 404.792 64.6894 404.913 64.3636H410.641C410.444 65.5758 409.978 66.6288 409.243 67.5227C408.508 68.4091 407.535 69.0985 406.322 69.5909C405.118 70.0758 403.709 70.3182 402.095 70.3182ZM419.473 46.7273V70H413.2V46.7273H419.473ZM431.078 70.3182C429.184 70.3182 427.563 69.9432 426.214 69.1932C424.866 68.4356 423.832 67.3826 423.112 66.0341C422.393 64.678 422.033 63.1061 422.033 61.3182C422.033 59.5303 422.393 57.9621 423.112 56.6136C423.832 55.2576 424.866 54.2045 426.214 53.4545C427.563 52.697 429.184 52.3182 431.078 52.3182C432.972 52.3182 434.593 52.697 435.942 53.4545C437.29 54.2045 438.324 55.2576 439.044 56.6136C439.764 57.9621 440.124 59.5303 440.124 61.3182C440.124 63.1061 439.764 64.678 439.044 66.0341C438.324 67.3826 437.29 68.4356 435.942 69.1932C434.593 69.9432 432.972 70.3182 431.078 70.3182ZM431.124 65.6818C431.654 65.6818 432.112 65.5038 432.499 65.1477C432.885 64.7917 433.184 64.2841 433.396 63.625C433.608 62.9659 433.714 62.1818 433.714 61.2727C433.714 60.3561 433.608 59.572 433.396 58.9205C433.184 58.2614 432.885 57.7538 432.499 57.3977C432.112 57.0417 431.654 56.8636 431.124 56.8636C430.563 56.8636 430.082 57.0417 429.68 57.3977C429.279 57.7538 428.972 58.2614 428.76 58.9205C428.548 59.572 428.442 60.3561 428.442 61.2727C428.442 62.1818 428.548 62.9659 428.76 63.625C428.972 64.2841 429.279 64.7917 429.68 65.1477C430.082 65.5038 430.563 65.6818 431.124 65.6818ZM458.624 58.2273H452.851C452.821 57.8712 452.696 57.5644 452.476 57.3068C452.256 57.0492 451.972 56.8523 451.624 56.7159C451.283 56.572 450.904 56.5 450.487 56.5C449.949 56.5 449.487 56.5985 449.101 56.7955C448.714 56.9924 448.525 57.2727 448.533 57.6364C448.525 57.8939 448.635 58.1326 448.862 58.3523C449.097 58.572 449.548 58.7424 450.214 58.8636L453.76 59.5C455.548 59.8258 456.877 60.375 457.749 61.1477C458.627 61.9129 459.071 62.9394 459.078 64.2273C459.071 65.4697 458.699 66.5492 457.964 67.4659C457.237 68.375 456.241 69.0795 454.976 69.5795C453.718 70.072 452.283 70.3182 450.669 70.3182C448.002 70.3182 445.915 69.7727 444.408 68.6818C442.908 67.5909 442.071 66.1515 441.896 64.3636H448.124C448.207 64.9167 448.48 65.3447 448.942 65.6477C449.411 65.9432 450.002 66.0909 450.714 66.0909C451.29 66.0909 451.764 65.9924 452.135 65.7955C452.514 65.5985 452.707 65.3182 452.714 64.9545C452.707 64.6212 452.54 64.3561 452.214 64.1591C451.896 63.9621 451.396 63.803 450.714 63.6818L447.624 63.1364C445.843 62.8258 444.51 62.2348 443.624 61.3636C442.737 60.4924 442.298 59.3712 442.305 58C442.298 56.7879 442.616 55.7614 443.26 54.9205C443.911 54.072 444.839 53.428 446.044 52.9886C447.256 52.5417 448.692 52.3182 450.351 52.3182C452.874 52.3182 454.862 52.8409 456.317 53.8864C457.779 54.9318 458.548 56.3788 458.624 58.2273Z" fill="white"/>
</svg>
